<svg width="512" height="512" viewBox="0 0 512 512" fill="none" xmlns="http://www.w3.org/2000/svg">
  <defs>
    <linearGradient id="grad1" x1="0%" y1="0%" x2="100%" y2="100%">
      <stop offset="0%" style="stop-color:#a855f7;stop-opacity:1" /> <!-- purple-500 -->
      <stop offset="100%" style="stop-color:#3b82f6;stop-opacity:1" /> <!-- blue-500 -->
    </linearGradient>
    <filter id="glow" x="-20%" y="-20%" width="140%" height="140%">
      <feGaussianBlur stdDeviation="15" result="blur" />
      <feComposite in="SourceGraphic" in2="blur" operator="over" />
    </filter>
  </defs>
  
  <!-- Background -->
  <rect x="0" y="0" width="512" height="512" rx="128" fill="url(#grad1)" />
  
  <!-- Pawn Icon -->
  <path d="M256 128C282.51 128 304 106.51 304 80C304 53.4903 282.51 32 256 32C229.49 32 208 53.4903 208 80C208 106.51 229.49 128 256 128Z" fill="white"/>
  <path d="M256 144C218.8 144 196.3 166.4 186.1 198.8C183.4 207.2 189.9 216 198.8 216H313.2C322.1 216 328.6 207.2 325.9 198.8C315.7 166.4 293.2 144 256 144Z" fill="white"/>
  <path d="M228.8 232H283.2C295.6 232 306.9 238.2 313.4 248.6L326.6 270.2C336.2 285.8 325.8 306 307.4 306H204.6C186.2 306 175.8 285.8 185.4 270.2L198.6 248.6C205.1 238.2 216.4 232 228.8 232Z" fill="white"/>
  <path d="M160 336C160 327.2 167.2 320 176 320H336C344.8 320 352 327.2 352 336V368H160V336Z" fill="white"/>
  <path d="M144 400C144 391.2 151.2 384 160 384H352C360.8 384 368 391.2 368 400V448C368 465.7 353.7 480 336 480H176C158.3 480 144 465.7 144 448V400Z" fill="white"/>
</svg>
